<?xml version="1.0" encoding="UTF-8"?>
<svg width="181px" height="66px" viewBox="0 0 181 66" version="1.1" xmlns="http://www.w3.org/2000/svg" xmlns:xlink="http://www.w3.org/1999/xlink">
    <title>Group</title>
    <g id="Old" stroke="none" stroke-width="1" fill="none" fill-rule="evenodd">
        <g id="Final" transform="translate(-513.000000, -214.000000)" fill-rule="nonzero">
            <g id="Group" transform="translate(513.000000, 214.818182)">
                <g id="Beta" transform="translate(152.118608, 0.000000)" fill="#C8C8C8">
                    <path d="M0,10.1818182 L0,0 L3.72869318,0 C4.45123106,0 5.04947917,0.118489583 5.5234375,0.35546875 C5.99739583,0.592447917 6.35203598,0.912286932 6.58735795,1.3149858 C6.82267992,1.71768466 6.94034091,2.17092803 6.94034091,2.67471591 C6.94034091,3.09895833 6.86245265,3.45608428 6.70667614,3.74609375 C6.55089962,4.03610322 6.3429214,4.2681108 6.08274148,4.44211648 C5.82256155,4.61612216 5.53669508,4.74289773 5.22514205,4.82244318 L5.22514205,4.921875 C5.56321023,4.93844697 5.89382102,5.04699337 6.21697443,5.2475142 C6.54012784,5.44803504 6.80776515,5.73224432 7.01988636,6.10014205 C7.23200758,6.46803977 7.33806818,6.91548295 7.33806818,7.44247159 C7.33806818,7.96283144 7.2162642,8.42933239 6.97265625,8.84197443 C6.7290483,9.25461648 6.35369318,9.58108428 5.84659091,9.82137784 C5.33948864,10.0616714 4.69152462,10.1818182 3.90269886,10.1818182 L0,10.1818182 Z M1.53622159,8.86434659 L3.75355114,8.86434659 C4.48934659,8.86434659 5.01633523,8.72182765 5.33451705,8.43678977 C5.65269886,8.15175189 5.81178977,7.79545455 5.81178977,7.36789773 C5.81178977,7.04640152 5.73058712,6.75142045 5.56818182,6.48295455 C5.40577652,6.21448864 5.17459754,6.00071023 4.87464489,5.84161932 C4.57469223,5.68252841 4.21922348,5.60298295 3.80823864,5.60298295 L1.53622159,5.60298295 L1.53622159,8.86434659 Z M1.53622159,4.40482955 L3.59446023,4.40482955 C3.9391572,4.40482955 4.24988163,4.33854167 4.52663352,4.20596591 C4.80338542,4.07339015 5.02379261,3.88695549 5.18785511,3.64666193 C5.35191761,3.40636837 5.43394886,3.12215909 5.43394886,2.79403409 C5.43394886,2.37310606 5.28645833,2.02012311 4.99147727,1.73508523 C4.69649621,1.45004735 4.24408144,1.30752841 3.63423295,1.30752841 L1.53622159,1.30752841 L1.53622159,4.40482955 Z" id="Shape"></path>
                    <path d="M12.3295455,10.3359375 C11.577178,10.3359375 10.9300426,10.1743608 10.3881392,9.85120739 C9.8462358,9.52805398 9.42862216,9.07232481 9.1352983,8.48401989 C8.84197443,7.89571496 8.6953125,7.20549242 8.6953125,6.41335227 C8.6953125,5.6311553 8.84197443,4.94176136 9.1352983,4.34517045 C9.42862216,3.74857955 9.83960701,3.2829072 10.3682528,2.94815341 C10.8968987,2.61339962 11.5158617,2.44602273 12.225142,2.44602273 C12.6560133,2.44602273 13.0736269,2.5172822 13.477983,2.65980114 C13.882339,2.80232008 14.2452652,3.02604167 14.5667614,3.33096591 C14.8882576,3.63589015 15.1418087,4.03113163 15.3274148,4.51669034 C15.5130208,5.00224905 15.6058239,5.59138258 15.6058239,6.28409091 L15.6058239,6.81107955 L9.53551136,6.81107955 L9.53551136,5.69744318 L14.1491477,5.69744318 C14.1491477,5.3063447 14.0696023,4.95916193 13.9105114,4.65589489 C13.7514205,4.35262784 13.5285275,4.11316288 13.2418324,3.9375 C12.9551373,3.76183712 12.6195549,3.67400568 12.2350852,3.67400568 C11.8174716,3.67400568 11.4537169,3.7759233 11.143821,3.97975852 C10.8339252,4.18359375 10.5952888,4.44874527 10.4279119,4.77521307 C10.260535,5.10168087 10.1768466,5.45549242 10.1768466,5.83664773 L10.1768466,6.70667614 C10.1768466,7.2170928 10.2671638,7.65127841 10.4477983,8.00923295 C10.6284328,8.3671875 10.8811553,8.6397964 11.2059659,8.82705966 C11.5307765,9.01432292 11.9102746,9.10795455 12.3444602,9.10795455 C12.6261837,9.10795455 12.8830492,9.06735322 13.1150568,8.98615057 C13.3470644,8.90494792 13.5475852,8.78314394 13.7166193,8.62073864 C13.8856534,8.45833333 14.0149148,8.2578125 14.1044034,8.01917614 L15.5113636,8.27272727 C15.3986742,8.68702652 15.1973248,9.04912405 14.9073153,9.35901989 C14.6173059,9.66891572 14.2543797,9.90920928 13.8185369,10.0799006 C13.3826941,10.2505919 12.8863636,10.3359375 12.3295455,10.3359375 Z" id="Path"></path>
                    <path d="M20.8259943,2.54545455 L20.8259943,3.73863636 L16.6548295,3.73863636 L16.6548295,2.54545455 L20.8259943,2.54545455 Z M17.7734375,0.715909091 L19.2599432,0.715909091 L19.2599432,7.93963068 C19.2599432,8.22798295 19.3030303,8.44424716 19.3892045,8.5884233 C19.4753788,8.73259943 19.5872396,8.83037405 19.7247869,8.88174716 C19.8623343,8.93312027 20.0123106,8.95880682 20.1747159,8.95880682 C20.2940341,8.95880682 20.3984375,8.95052083 20.4879261,8.93394886 C20.5774148,8.91737689 20.647017,8.90411932 20.696733,8.89417614 L20.9651989,10.1221591 C20.8790246,10.155303 20.756392,10.1892756 20.5973011,10.2240767 C20.4382102,10.2588778 20.2393466,10.2779356 20.0007102,10.28125 C19.6096117,10.2878788 19.2450284,10.2182765 18.9069602,10.0724432 C18.568892,9.92660985 18.2954545,9.70123106 18.0866477,9.39630682 C17.8778409,9.09138258 17.7734375,8.70857008 17.7734375,8.24786932 L17.7734375,0.715909091 Z" id="Shape"></path>
                    <path d="M24.6889205,10.3508523 C24.2050189,10.3508523 23.7675189,10.260535 23.3764205,10.0799006 C22.985322,9.8992661 22.6762547,9.63660038 22.4492188,9.29190341 C22.2221828,8.94720644 22.1086648,8.52462121 22.1086648,8.02414773 C22.1086648,7.59327652 22.1915246,7.23863636 22.3572443,6.96022727 C22.522964,6.68181818 22.7466856,6.46141098 23.0284091,6.29900568 C23.3101326,6.13660038 23.625,6.0139678 23.9730114,5.93110795 C24.3210227,5.84824811 24.6756629,5.78527462 25.0369318,5.7421875 C25.4943182,5.6891572 25.8655303,5.64524148 26.1505682,5.61044034 C26.4356061,5.5756392 26.6427557,5.51846591 26.772017,5.43892045 C26.9012784,5.359375 26.9659091,5.23011364 26.9659091,5.05113636 L26.9659091,5.01633523 C26.9659091,4.58214962 26.8441051,4.24573864 26.6004972,4.00710227 C26.3568892,3.76846591 25.9947917,3.64914773 25.5142045,3.64914773 C25.0137311,3.64914773 24.6201468,3.75935133 24.3334517,3.97975852 C24.0467566,4.20016572 23.8487216,4.44460227 23.7393466,4.71306818 L22.3423295,4.39488636 C22.5080492,3.93087121 22.7508286,3.5555161 23.0706676,3.26882102 C23.3905066,2.98212595 23.759233,2.77331913 24.1768466,2.64240057 C24.5944602,2.51148201 25.0336174,2.44602273 25.4943182,2.44602273 C25.7992424,2.44602273 26.1232244,2.48165246 26.4662642,2.55291193 C26.809304,2.6241714 27.1308002,2.75426136 27.4307528,2.94318182 C27.7307055,3.13210227 27.9767992,3.40139678 28.1690341,3.75106534 C28.3612689,4.1007339 28.4573864,4.55397727 28.4573864,5.11079545 L28.4573864,10.1818182 L27.0056818,10.1818182 L27.0056818,9.13778409 L26.9460227,9.13778409 C26.8499053,9.33001894 26.7057292,9.51893939 26.5134943,9.70454545 C26.3212595,9.89015152 26.0743371,10.0442708 25.7727273,10.1669034 C25.4711174,10.289536 25.1098485,10.3508523 24.6889205,10.3508523 Z M25.0120739,9.15767045 C25.4230587,9.15767045 25.7752131,9.0764678 26.0685369,8.9140625 C26.3618608,8.7516572 26.5855824,8.53870739 26.7397017,8.27521307 C26.893821,8.01171875 26.9708807,7.72916667 26.9708807,7.42755682 L26.9708807,6.44318182 C26.9178504,6.49621212 26.8159328,6.54509943 26.6651278,6.58984375 C26.5143229,6.63458807 26.342803,6.6727036 26.1505682,6.70419034 C25.9583333,6.73567708 25.7710701,6.76384943 25.5887784,6.78870739 C25.4064867,6.81356534 25.2540246,6.8342803 25.131392,6.85085227 C24.8430398,6.88731061 24.5803741,6.94862689 24.3433949,7.03480114 C24.1064157,7.12097538 23.9174953,7.24443655 23.7766335,7.40518466 C23.6357718,7.56593277 23.5653409,7.77888258 23.5653409,8.04403409 C23.5653409,8.41193182 23.7012311,8.68951231 23.9730114,8.87677557 C24.2447917,9.06403883 24.5911458,9.15767045 25.0120739,9.15767045 Z" id="Shape"></path>
                </g>
                <g id="kupay" transform="translate(0.000000, 5.181818)" fill="#4541EE">
                    <path d="M7.07551986,12.4663921 C7.38998741,10.9839023 7.94030562,9.4901814 8.72647449,7.98522955 C9.51264337,6.48027771 10.478508,5.14379063 11.6240683,3.9757683 C12.7696287,2.80774598 14.0611918,1.85311234 15.4987578,1.11186741 C16.9363237,0.370622469 18.5086615,0 20.215771,0 L14.622741,26.2131164 L14.8922847,26.2131164 L27.1565191,12.1294626 L38.342579,12.1294626 L24.6632406,26.2131164 C27.0442092,26.3928122 28.8860906,26.8757445 30.1888847,27.6619134 C31.4916789,28.4480822 32.4013886,29.4364088 32.9180138,30.6268931 C33.4346391,31.8173774 33.6480278,33.1538645 33.5581799,34.6363544 C33.468332,36.1188442 33.2661743,37.646258 32.9517068,39.2185958 L31.5366028,46.024572 L20.8896301,46.024572 L21.9678045,40.7010857 C22.327196,38.9490522 22.4956608,37.5564102 22.4731988,36.5231597 C22.4507368,35.4899091 22.2598101,34.7037403 21.9004186,34.164653 C21.5410271,33.6255658 21.0356328,33.2774053 20.3842358,33.1201715 C19.7328387,32.9629378 19.0028248,32.8843209 18.1941939,32.8843209 L13.2076371,32.8843209 L10.444815,46.024572 L0,46.024572 L7.07551986,12.4663921 Z" id="Path"></path>
                    <path d="M72.6113739,12.1294626 L65.4684682,46.024572 L51.1152707,46.024572 C48.2850628,46.024572 45.9265562,45.6427186 44.0397509,44.8790117 C42.1529456,44.1153048 40.7041487,43.0034374 39.6933601,41.5434095 C38.6825716,40.0833815 38.0760984,38.3313481 37.8739407,36.287309 C37.671783,34.2432699 37.8402478,31.9409182 38.379335,29.3802539 L42.0181738,12.1294626 L52.328217,12.1294626 L48.6893782,29.3802539 C48.150291,31.9409182 48.3412177,33.9512643 49.2621584,35.4112922 C50.1830991,36.8713202 51.609434,37.6013341 53.5411633,37.6013341 L56.9104584,37.6013341 L62.3013307,12.1294626 L72.6113739,12.1294626 Z" id="Path"></path>
                    <path d="M77.9042303,59.8386822 C76.017425,59.8386822 74.5237042,59.4343668 73.4230678,58.625736 C72.3224313,57.8171051 71.5138005,56.8063166 70.9971752,55.5933703 C70.48055,54.3804241 70.2110064,53.055168 70.1885444,51.617602 C70.1660824,50.1800361 70.2896233,48.809856 70.5591669,47.5070619 L78.0390021,12.1294626 L94.2790049,12.1294626 C96.7048974,12.1294626 98.8387843,12.5113161 100.680666,13.275023 C102.522547,14.0387299 104.016268,15.1393663 105.161828,16.5769322 C106.307389,18.0144982 107.048634,19.8114556 107.385563,21.9678045 C107.722493,24.1241534 107.598952,26.5725079 107.014941,29.312868 C106.475853,31.7836844 105.566144,34.0860361 104.285812,36.2199231 C103.005479,38.35381 101.478066,40.2069224 99.7035701,41.7792601 C97.9290746,43.3515979 95.9411905,44.5870061 93.7399176,45.4854848 C91.5386448,46.3839635 89.269986,46.8332029 86.9339414,46.8332029 C86.1702345,46.8332029 85.2380628,46.720893 84.1374264,46.4962734 C83.03679,46.2716537 81.9698465,45.9796481 80.936596,45.6202566 L77.9042303,59.8386822 Z M88.5512031,37.66872 C89.4496818,37.66872 90.3481605,37.4777933 91.2466392,37.0959398 C92.1451179,36.7140864 92.9986727,36.1525372 93.8073035,35.4112922 C94.6159344,34.6700473 95.3234864,33.7715686 95.9299595,32.7158561 C96.5364326,31.6601436 96.974441,30.4584283 97.2439846,29.1107103 C97.7830718,26.5949699 97.6258381,24.5396998 96.7722833,22.9449001 C95.9187285,21.3501004 94.7057823,20.5527005 93.1334445,20.5527005 L86.2600824,20.5527005 L82.6212436,37.66872 L88.5512031,37.66872 Z" id="Shape"></path>
                    <path d="M137.510125,46.024572 L121.202736,46.024572 C118.821768,46.024572 116.710343,45.6539496 114.868461,44.9127046 C113.02658,44.1714597 111.532859,43.0708233 110.387299,41.6107954 C109.241738,40.1507675 108.489262,38.365041 108.129871,36.253616 C107.77048,34.1421911 107.882789,31.6938366 108.466801,28.9085526 C109.005888,26.4377361 109.859443,24.1803083 111.027465,22.1362693 C112.195487,20.0922302 113.677977,18.3289657 115.474934,16.8464759 C117.271892,15.363986 119.338393,14.2071946 121.674438,13.3761018 C124.010482,12.545009 126.638532,12.1294626 129.558588,12.1294626 L144.653031,12.1294626 L137.510125,46.024572 Z M126.930538,20.6200864 C126.032059,20.6200864 125.133581,20.8110132 124.235102,21.1928666 C123.336623,21.5747201 122.494299,22.1362693 121.708131,22.8775142 C120.921962,23.6187591 120.225641,24.5060069 119.619168,25.5392574 C119.012694,26.5725079 118.574686,27.7629922 118.305142,29.1107103 C117.766055,31.6264507 117.923289,33.6704897 118.776844,35.2428275 C119.630399,36.8151652 120.843345,37.6013341 122.415683,37.6013341 L129.221659,37.6013341 L132.860498,20.6200864 L126.930538,20.6200864 Z" id="Shape"></path>
                    <path d="M144.352857,50.6741994 L158.099581,50.6741994 C159.312528,50.6741994 160.334547,50.3709628 161.16564,49.7644897 C161.996733,49.1580165 162.524589,48.2707688 162.749209,47.1027465 L163.423068,43.935609 C162.344893,44.2051526 161.199333,44.4297723 159.986387,44.6094681 C158.77344,44.7891638 157.785114,44.8790117 157.021407,44.8790117 C152.663785,44.8790117 149.440493,43.5312936 147.35153,40.8358575 C145.262567,38.1404213 144.734711,34.2994248 145.767961,29.312868 L149.4068,12.1294626 L159.716843,12.1294626 L156.280162,28.4368512 C155.741075,30.9975156 155.954463,32.9741687 156.920328,34.3668107 C157.886193,35.7594527 159.694381,36.4557737 162.344893,36.4557737 L164.568628,36.4557737 L169.689957,12.1294626 L180,12.1294626 L172.92448,45.6876425 C172.520165,47.5744478 171.89123,49.3264813 171.037675,50.943743 C170.18412,52.5610047 169.128408,53.9648777 167.870537,55.1553619 C166.612667,56.3458462 165.152639,57.2780179 163.490454,57.9518769 C161.828268,58.625736 159.986387,58.9626655 157.96481,58.9626655 L142.600824,58.9626655 L144.352857,50.6741994 Z" id="Path"></path>
                </g>
            </g>
        </g>
    </g>
</svg>