<?xml version="1.0" encoding="UTF-8"?>
<svg width="205px" height="205px" viewBox="0 0 205 205" version="1.1" xmlns="http://www.w3.org/2000/svg" xmlns:xlink="http://www.w3.org/1999/xlink">
    <title>kupay-icon-white</title>
    <g id="kupay-icon-white" stroke="none" stroke-width="1" fill="none" fill-rule="evenodd">
        <g id="kupay" transform="translate(34.000000, 45.000000)" fill="#5856EF" fill-rule="nonzero">
            <path d="M13.5718519,23.9053083 C14.1750453,21.0625149 15.2306338,18.1981852 16.7386173,15.3123191 C18.2466009,12.4264531 20.0992664,9.86363172 22.2966138,7.62385509 C24.4939613,5.38407845 26.9713628,3.55349178 29.7288184,2.13209507 C32.486274,0.710698355 35.5022411,0 38.7767197,0 L28.0484939,50.2657564 L28.5655168,50.2657564 L52.0900601,23.2592189 L73.5465116,23.2592189 L47.307598,50.2657564 C51.8746339,50.6103374 55.4076239,51.5363989 57.906568,53.0439409 C60.4055122,54.5514829 62.1504646,56.4466785 63.1414252,58.7295277 C64.1323858,61.012377 64.5416956,63.5751983 64.3693546,66.4179918 C64.1970137,69.2607852 63.8092465,72.1897239 63.2060531,75.2048078 L60.4916827,88.255814 L40.069277,88.255814 L42.1373687,78.0476012 C42.8267326,74.6879363 43.1498719,72.0174333 43.1067867,70.0360925 C43.0637014,68.0547516 42.6974769,66.5472096 42.008113,65.5134666 C41.3187491,64.4797235 40.3493311,63.8120978 39.099859,63.5105894 C37.8503869,63.209081 36.4501165,63.0583268 34.8990477,63.0583268 L25.3341235,63.0583268 L20.0346385,88.255814 L0,88.255814 L13.5718519,23.9053083 Z" id="Path"></path>
            <path d="M80.2933026,115 C76.6826263,115 73.8241742,114.223739 71.7179463,112.671216 C69.6117185,111.118693 68.0642858,109.17804 67.0756482,106.849256 C66.0870107,104.520472 65.5711998,101.97606 65.5282155,99.2160196 C65.4852313,96.4559793 65.7216446,93.8253159 66.2374555,91.3240294 L80.551208,23.4011628 L111.628815,23.4011628 C116.271113,23.4011628 120.354616,24.1342985 123.879324,25.6005699 C127.404031,27.0668413 130.262484,29.1799972 132.45468,31.9400374 C134.646876,34.7000777 136.065356,38.1501281 136.71012,42.2901885 C137.354883,46.430249 137.11847,51.1309426 136.00088,56.3922694 C134.969258,61.1360887 133.228396,65.5564657 130.778294,69.6534005 C128.328193,73.7503353 125.405264,77.3081998 122.009509,80.3269938 C118.613754,83.3457879 114.809649,85.7176975 110.597193,87.4427227 C106.384737,89.1677479 102.043329,90.0302605 97.5729677,90.0302605 C96.1115035,90.0302605 94.3276575,89.8146323 92.2214296,89.383376 C90.1152018,88.9521197 88.0734503,88.3914866 86.0961752,87.7014765 L80.2933026,115 Z M100.667833,72.4350036 C102.387203,72.4350036 104.106572,72.0684358 105.825942,71.3353001 C107.545312,70.6021644 109.178713,69.5240236 110.726146,68.1008778 C112.273578,66.6777321 113.627582,64.9527069 114.788157,62.9258023 C115.948731,60.8988977 116.786924,58.5916765 117.302735,56.0041387 C118.334356,51.1740682 118.033467,47.2280731 116.400066,44.1661534 C114.766664,41.1042337 112.445515,39.5732739 109.436618,39.5732739 L96.2834405,39.5732739 L89.3199933,72.4350036 L100.667833,72.4350036 Z" id="Shape"></path>
        </g>
    </g>
</svg>