<?xml version="1.0" encoding="UTF-8"?>
<svg width="119px" height="41px" viewBox="0 0 119 41" version="1.1" xmlns="http://www.w3.org/2000/svg" xmlns:xlink="http://www.w3.org/1999/xlink">
    <title>kupay-logo-black</title>
    <g id="Brand" stroke="none" stroke-width="1" fill="none" fill-rule="evenodd">
        <g id="kupay-logo-black" transform="translate(0.552000, 0.948000)" fill="#000000" fill-rule="nonzero">
            <path d="M4.62,8.14 C4.82533333,7.172 5.18466667,6.19666667 5.698,5.214 C6.21133333,4.23133333 6.842,3.35866667 7.59,2.596 C8.338,1.83333333 9.18133333,1.21 10.12,0.726 C11.0586667,0.242 12.0853333,0 13.2,0 L9.548,17.116 L9.724,17.116 L17.732,7.92 L25.036,7.92 L16.104,17.116 C17.6586667,17.2333333 18.8613333,17.5486667 19.712,18.062 C20.5626667,18.5753333 21.1566667,19.2206667 21.494,19.998 C21.8313333,20.7753333 21.9706667,21.648 21.912,22.616 C21.8533333,23.584 21.7213333,24.5813333 21.516,25.608 L20.592,30.052 L13.64,30.052 L14.344,26.576 C14.5786667,25.432 14.6886667,24.5226667 14.674,23.848 C14.6593333,23.1733333 14.5346667,22.66 14.3,22.308 C14.0653333,21.956 13.7353333,21.7286667 13.31,21.626 C12.8846667,21.5233333 12.408,21.472 11.88,21.472 L8.624,21.472 L6.82,30.052 L0,30.052 L4.62,8.14 Z" id="Path"></path>
            <path d="M47.412,7.92 L42.748,30.052 L33.376,30.052 C31.528,30.052 29.988,29.8026667 28.756,29.304 C27.524,28.8053333 26.578,28.0793333 25.918,27.126 C25.258,26.1726667 24.862,25.0286667 24.73,23.694 C24.598,22.3593333 24.708,20.856 25.06,19.184 L27.436,7.92 L34.168,7.92 L31.792,19.184 C31.44,20.856 31.5646667,22.1686667 32.166,23.122 C32.7673333,24.0753333 33.6986667,24.552 34.96,24.552 L37.16,24.552 L40.68,7.92 L47.412,7.92 Z" id="Path"></path>
            <path d="M50.868,39.072 C49.636,39.072 48.6606667,38.808 47.942,38.28 C47.2233333,37.752 46.6953333,37.092 46.358,36.3 C46.0206667,35.508 45.8446667,34.6426667 45.83,33.704 C45.8153333,32.7653333 45.896,31.8706667 46.072,31.02 L50.956,7.92 L61.56,7.92 C63.144,7.92 64.5373333,8.16933333 65.74,8.668 C66.9426667,9.16666667 67.918,9.88533333 68.666,10.824 C69.414,11.7626667 69.898,12.936 70.118,14.344 C70.338,15.752 70.2573333,17.3506667 69.876,19.14 C69.524,20.7533333 68.93,22.2566667 68.094,23.65 C67.258,25.0433333 66.2606667,26.2533333 65.102,27.28 C63.9433333,28.3066667 62.6453333,29.1133333 61.208,29.7 C59.7706667,30.2866667 58.2893333,30.58 56.764,30.58 C56.2653333,30.58 55.6566667,30.5066667 54.938,30.36 C54.2193333,30.2133333 53.5226667,30.0226667 52.848,29.788 L50.868,39.072 Z M57.82,24.596 C58.4066667,24.596 58.9933333,24.4713333 59.58,24.222 C60.1666667,23.9726667 60.724,23.606 61.252,23.122 C61.78,22.638 62.242,22.0513333 62.638,21.362 C63.034,20.6726667 63.32,19.888 63.496,19.008 C63.848,17.3653333 63.7453333,16.0233333 63.188,14.982 C62.6306667,13.9406667 61.8386667,13.42 60.812,13.42 L56.324,13.42 L53.948,24.596 L57.82,24.596 Z" id="Shape"></path>
            <path d="M89.788,30.052 L79.14,30.052 C77.5853333,30.052 76.2066667,29.81 75.004,29.326 C73.8013333,28.842 72.826,28.1233333 72.078,27.17 C71.33,26.2166667 70.8386667,25.0506667 70.604,23.672 C70.3693333,22.2933333 70.4426667,20.6946667 70.824,18.876 C71.176,17.2626667 71.7333333,15.7886667 72.496,14.454 C73.2586667,13.1193333 74.2266667,11.968 75.4,11 C76.5733333,10.032 77.9226667,9.27666667 79.448,8.734 C80.9733333,8.19133333 82.6893333,7.92 84.596,7.92 L94.452,7.92 L89.788,30.052 Z M82.88,13.464 C82.2933333,13.464 81.7066667,13.5886667 81.12,13.838 C80.5333333,14.0873333 79.9833333,14.454 79.47,14.938 C78.9566667,15.422 78.502,16.0013333 78.106,16.676 C77.71,17.3506667 77.424,18.128 77.248,19.008 C76.896,20.6506667 76.9986667,21.9853333 77.556,23.012 C78.1133333,24.0386667 78.9053333,24.552 79.932,24.552 L84.376,24.552 L86.752,13.464 L82.88,13.464 Z" id="Shape"></path>
            <path d="M94.256,33.088 L103.232,33.088 C104.024,33.088 104.691333,32.89 105.234,32.494 C105.776667,32.098 106.121333,31.5186667 106.268,30.756 L106.708,28.688 C106.004,28.864 105.256,29.0106667 104.464,29.128 C103.672,29.2453333 103.026667,29.304 102.528,29.304 C99.6826667,29.304 97.578,28.424 96.214,26.664 C94.85,24.904 94.5053333,22.396 95.18,19.14 L97.556,7.92 L104.288,7.92 L102.044,18.568 C101.692,20.24 101.831333,21.5306667 102.462,22.44 C103.092667,23.3493333 104.273333,23.804 106.004,23.804 L107.456,23.804 L110.8,7.92 L117.532,7.92 L112.912,29.832 C112.648,31.064 112.237333,32.208 111.68,33.264 C111.122667,34.32 110.433333,35.2366667 109.612,36.014 C108.790667,36.7913333 107.837333,37.4 106.752,37.84 C105.666667,38.28 104.464,38.5 103.144,38.5 L93.112,38.5 L94.256,33.088 Z" id="Path"></path>
        </g>
    </g>
</svg>