<?xml version="1.0" encoding="UTF-8"?>
<svg width="180px" height="60px" viewBox="0 0 180 60" version="1.1" xmlns="http://www.w3.org/2000/svg" xmlns:xlink="http://www.w3.org/1999/xlink">
    <title>kupay</title>
    <g id="Page-1" stroke="none" stroke-width="1" fill="none" fill-rule="evenodd">
        <g id="Desktop-HD" transform="translate(-513.000000, -220.000000)" fill="#4541EE" fill-rule="nonzero">
            <g id="kupay" transform="translate(513.000000, 220.000000)">
                <path d="M7.07551986,12.4663921 C7.38998741,10.9839023 7.94030562,9.4901814 8.72647449,7.98522955 C9.51264337,6.48027771 10.478508,5.14379063 11.6240683,3.9757683 C12.7696287,2.80774598 14.0611918,1.85311234 15.4987578,1.11186741 C16.9363237,0.370622469 18.5086615,0 20.215771,0 L14.622741,26.2131164 L14.8922847,26.2131164 L27.1565191,12.1294626 L38.342579,12.1294626 L24.6632406,26.2131164 C27.0442092,26.3928122 28.8860906,26.8757445 30.1888847,27.6619134 C31.4916789,28.4480822 32.4013886,29.4364088 32.9180138,30.6268931 C33.4346391,31.8173774 33.6480278,33.1538645 33.5581799,34.6363544 C33.468332,36.1188442 33.2661743,37.646258 32.9517068,39.2185958 L31.5366028,46.024572 L20.8896301,46.024572 L21.9678045,40.7010857 C22.327196,38.9490522 22.4956608,37.5564102 22.4731988,36.5231597 C22.4507368,35.4899091 22.2598101,34.7037403 21.9004186,34.164653 C21.5410271,33.6255658 21.0356328,33.2774053 20.3842358,33.1201715 C19.7328387,32.9629378 19.0028248,32.8843209 18.1941939,32.8843209 L13.2076371,32.8843209 L10.444815,46.024572 L0,46.024572 L7.07551986,12.4663921 Z" id="Path"></path>
                <path d="M72.6113739,12.1294626 L65.4684682,46.024572 L51.1152707,46.024572 C48.2850628,46.024572 45.9265562,45.6427186 44.0397509,44.8790117 C42.1529456,44.1153048 40.7041487,43.0034374 39.6933601,41.5434095 C38.6825716,40.0833815 38.0760984,38.3313481 37.8739407,36.287309 C37.671783,34.2432699 37.8402478,31.9409182 38.379335,29.3802539 L42.0181738,12.1294626 L52.328217,12.1294626 L48.6893782,29.3802539 C48.150291,31.9409182 48.3412177,33.9512643 49.2621584,35.4112922 C50.1830991,36.8713202 51.609434,37.6013341 53.5411633,37.6013341 L56.9104584,37.6013341 L62.3013307,12.1294626 L72.6113739,12.1294626 Z" id="Path"></path>
                <path d="M77.9042303,59.8386822 C76.017425,59.8386822 74.5237042,59.4343668 73.4230678,58.625736 C72.3224313,57.8171051 71.5138005,56.8063166 70.9971752,55.5933703 C70.48055,54.3804241 70.2110064,53.055168 70.1885444,51.617602 C70.1660824,50.1800361 70.2896233,48.809856 70.5591669,47.5070619 L78.0390021,12.1294626 L94.2790049,12.1294626 C96.7048974,12.1294626 98.8387843,12.5113161 100.680666,13.275023 C102.522547,14.0387299 104.016268,15.1393663 105.161828,16.5769322 C106.307389,18.0144982 107.048634,19.8114556 107.385563,21.9678045 C107.722493,24.1241534 107.598952,26.5725079 107.014941,29.312868 C106.475853,31.7836844 105.566144,34.0860361 104.285812,36.2199231 C103.005479,38.35381 101.478066,40.2069224 99.7035701,41.7792601 C97.9290746,43.3515979 95.9411905,44.5870061 93.7399176,45.4854848 C91.5386448,46.3839635 89.269986,46.8332029 86.9339414,46.8332029 C86.1702345,46.8332029 85.2380628,46.720893 84.1374264,46.4962734 C83.03679,46.2716537 81.9698465,45.9796481 80.936596,45.6202566 L77.9042303,59.8386822 Z M88.5512031,37.66872 C89.4496818,37.66872 90.3481605,37.4777933 91.2466392,37.0959398 C92.1451179,36.7140864 92.9986727,36.1525372 93.8073035,35.4112922 C94.6159344,34.6700473 95.3234864,33.7715686 95.9299595,32.7158561 C96.5364326,31.6601436 96.974441,30.4584283 97.2439846,29.1107103 C97.7830718,26.5949699 97.6258381,24.5396998 96.7722833,22.9449001 C95.9187285,21.3501004 94.7057823,20.5527005 93.1334445,20.5527005 L86.2600824,20.5527005 L82.6212436,37.66872 L88.5512031,37.66872 Z" id="Shape"></path>
                <path d="M137.510125,46.024572 L121.202736,46.024572 C118.821768,46.024572 116.710343,45.6539496 114.868461,44.9127046 C113.02658,44.1714597 111.532859,43.0708233 110.387299,41.6107954 C109.241738,40.1507675 108.489262,38.365041 108.129871,36.253616 C107.77048,34.1421911 107.882789,31.6938366 108.466801,28.9085526 C109.005888,26.4377361 109.859443,24.1803083 111.027465,22.1362693 C112.195487,20.0922302 113.677977,18.3289657 115.474934,16.8464759 C117.271892,15.363986 119.338393,14.2071946 121.674438,13.3761018 C124.010482,12.545009 126.638532,12.1294626 129.558588,12.1294626 L144.653031,12.1294626 L137.510125,46.024572 Z M126.930538,20.6200864 C126.032059,20.6200864 125.133581,20.8110132 124.235102,21.1928666 C123.336623,21.5747201 122.494299,22.1362693 121.708131,22.8775142 C120.921962,23.6187591 120.225641,24.5060069 119.619168,25.5392574 C119.012694,26.5725079 118.574686,27.7629922 118.305142,29.1107103 C117.766055,31.6264507 117.923289,33.6704897 118.776844,35.2428275 C119.630399,36.8151652 120.843345,37.6013341 122.415683,37.6013341 L129.221659,37.6013341 L132.860498,20.6200864 L126.930538,20.6200864 Z" id="Shape"></path>
                <path d="M144.352857,50.6741994 L158.099581,50.6741994 C159.312528,50.6741994 160.334547,50.3709628 161.16564,49.7644897 C161.996733,49.1580165 162.524589,48.2707688 162.749209,47.1027465 L163.423068,43.935609 C162.344893,44.2051526 161.199333,44.4297723 159.986387,44.6094681 C158.77344,44.7891638 157.785114,44.8790117 157.021407,44.8790117 C152.663785,44.8790117 149.440493,43.5312936 147.35153,40.8358575 C145.262567,38.1404213 144.734711,34.2994248 145.767961,29.312868 L149.4068,12.1294626 L159.716843,12.1294626 L156.280162,28.4368512 C155.741075,30.9975156 155.954463,32.9741687 156.920328,34.3668107 C157.886193,35.7594527 159.694381,36.4557737 162.344893,36.4557737 L164.568628,36.4557737 L169.689957,12.1294626 L180,12.1294626 L172.92448,45.6876425 C172.520165,47.5744478 171.89123,49.3264813 171.037675,50.943743 C170.18412,52.5610047 169.128408,53.9648777 167.870537,55.1553619 C166.612667,56.3458462 165.152639,57.2780179 163.490454,57.9518769 C161.828268,58.625736 159.986387,58.9626655 157.96481,58.9626655 L142.600824,58.9626655 L144.352857,50.6741994 Z" id="Path"></path>
            </g>
        </g>
    </g>
</svg>